<svg xmlns="http://www.w3.org/2000/svg" xml:space="preserve" width="100" height="100" version="1.2"><path fill="#0567ff" d="M94.5 37.04c0 10.29-4.4 19.33-8.5 25.5L66.84 91.12H56.66l20.18-28.93c-2.52 1.84-5.42 2.76-8.6 2.76-6.17 0-11.21-2.17-15.13-5.82.09.68.09 1.49.09 2.28 0 18.06-9.25 31.1-23.55 31.1-14.67 0-23.64-13.04-23.64-31.1 0-18.19 8.98-31.1 23.64-31.1 6.35 0 11.59 2.41 15.51 6.63.18-16.59 10.18-28.93 24.95-28.93 15.34 0 24.4 12.58 24.4 29.04M44.43 61.41c0-13.26-4.76-22.87-14.76-22.87-10.09 0-14.86 9.61-14.86 22.87 0 13.37 4.76 22.87 14.86 22.87 10 0 14.76-9.5 14.76-22.87m41.59-24.36c0-11.21-5.6-20.81-15.88-20.81-10.18 0-16.17 9.61-16.17 21.16 0 11.32 5.7 20.57 15.97 20.57 10.09 0 16.08-9.94 16.08-20.92" class="layer"/></svg>